<svg width="45.000000" height="30.000000" viewBox="0 0 45 30" fill="none" xmlns="http://www.w3.org/2000/svg" xmlns:xlink="http://www.w3.org/1999/xlink">
	<desc>
			Created with Pixso.
	</desc>
	<defs/>
	<path id="Vector" d="M-0.33 4.12C-0.33 2.44 0.82 1.77 2.24 1.68L8.85 1.73C9.25 1.73 9.61 1.99 9.74 2.39C11.25 7.27 13.11 10.29 15.33 13.71C15.46 13.97 15.69 14.11 15.91 14.11C16.09 14.11 16.26 14.02 16.4 13.8L16.53 13.31L16.57 5.63C16.57 4.52 16.57 5 16.57 4C16.57 3.33 16.57 3.44 16.57 3C16.57 2.91 16.57 2.68 16.57 2.46C16.57 0.04 16.57 0.04 19.37 0.04L21.86 0C23.9 0 25.76 0.88 25.76 3.5L25.76 13.57C25.94 13.71 26.12 13.8 26.34 13.8C26.69 13.8 27.14 13.57 27.49 13C29.8 9.76 32.42 5.9 32.77 3.86C32.77 3.77 32.82 3.72 32.86 3.63C33.35 2.66 34.59 1.99 35.12 1.81C35.21 1.77 35.35 1.73 35.52 1.73L42.4 1.73L42.85 1.77C43.51 1.77 44 2.21 44.22 2.61C44.62 3.23 44.53 3.9 44.58 4.17L44.58 4.48C43.91 8.52 39.3 13.04 37.34 15.97C37.08 16.33 36.94 16.64 36.94 16.95C36.94 17.21 37.08 17.48 37.3 17.75L43.78 25.91C44.13 26.4 44.31 26.98 44.31 27.47C44.31 28.93 42.94 29.77 41.6 29.91L40.85 29.95L34.1 29.95C33.97 29.95 33.88 30 33.75 30C32.99 30 32.37 29.6 31.93 29.15C30.51 27.42 29.13 25.65 27.76 23.92C27.49 23.56 27.4 23.52 27.14 23.34C26.83 24.63 26.56 25.96 26.25 27.29L26.12 28.04C25.89 28.84 25.32 29.68 24.25 29.91L23.63 29.95L19.28 29.95C11.6 29.95 4.73 19.03 -0.11 5.41C-0.25 5.05 -0.33 4.57 -0.33 4.12ZM26.34 15.62C25.18 15.62 23.9 14.95 23.9 13.71L23.9 3.5C23.9 2.3 23.36 1.86 21.9 1.86L19.37 1.86C18.44 1.86 18.44 1.86 18.44 2.5C18.44 3.5 18.44 3.77 18.44 5.63L18.44 13.44C18.3 15 17.02 16.02 15.78 16.02C14.93 16.02 14.18 15.53 13.73 14.73C11.74 11.71 10.05 8.87 8.59 4.79L8.19 3.63L2.28 3.59C1.49 3.59 1.57 3.63 1.57 4.03C1.57 4.3 1.62 4.65 1.66 4.88L2.59 7.36C7.43 19.88 13.51 28.09 19.28 28.09L23.72 28.09C24.34 28.09 24.3 27.33 24.43 26.89L25.27 22.98C25.45 22.58 25.58 22.23 25.89 21.92C26.25 21.56 26.65 21.43 27.05 21.43C27.89 21.43 28.69 22.1 29.22 22.72L32.99 27.51C33.3 28 33.57 28.09 33.75 28.09L41.07 28.09C41.78 28.09 42.4 27.86 42.4 27.42C42.4 27.29 42.36 27.11 42.27 26.98L35.83 18.94C35.3 18.28 35.08 17.61 35.08 16.95C35.08 16.24 35.35 15.53 35.79 14.91C37.65 12.11 41.65 8.12 42.58 4.83L42.71 4.26C42.67 4.03 42.67 3.86 42.62 3.63L35.66 3.63C35.21 3.81 34.86 4.08 34.59 4.43L34.33 5.28C33.3 8.12 30.51 12.02 28.51 14.73C27.85 15.35 27.09 15.62 26.34 15.62Z" fill="#000000" fill-opacity="1.000000" fill-rule="nonzero"/>
</svg>
