<svg width="20.000000" height="20.000000" viewBox="0 0 20 20" fill="none" xmlns="http://www.w3.org/2000/svg" xmlns:xlink="http://www.w3.org/1999/xlink">
	<desc>
			Created with Pixso.
	</desc>
	<defs/>
	<path id="Vector" d="M18.83 20C16.51 20 14.23 19.49 11.97 18.48C9.71 17.47 7.65 16.04 5.8 14.19C3.95 12.34 2.52 10.28 1.51 8.02C0.5 5.76 0 3.48 0 1.16C0 0.83 0.11 0.55 0.33 0.33C0.55 0.11 0.83 0 1.16 0L5.66 0C5.92 0 6.15 0.08 6.36 0.26C6.56 0.43 6.68 0.64 6.72 0.88L7.44 4.77C7.48 5.07 7.47 5.32 7.41 5.52C7.36 5.73 7.25 5.9 7.11 6.05L4.41 8.77C4.78 9.46 5.22 10.12 5.73 10.76C6.24 11.4 6.8 12.01 7.41 12.61C7.99 13.18 8.59 13.71 9.22 14.2C9.85 14.69 10.51 15.14 11.22 15.55L13.83 12.94C14 12.77 14.21 12.65 14.48 12.56C14.75 12.48 15.01 12.46 15.27 12.5L19.11 13.27C19.37 13.35 19.58 13.48 19.75 13.68C19.91 13.87 20 14.09 20 14.33L20 18.83C20 19.16 19.88 19.44 19.66 19.66C19.44 19.88 19.16 20 18.83 20ZM3.36 6.66L5.19 4.83L4.72 2.22L2.25 2.22C2.34 2.98 2.47 3.73 2.63 4.47C2.8 5.21 3.04 5.94 3.36 6.66ZM13.3 16.61C14.02 16.92 14.76 17.17 15.51 17.36C16.26 17.54 17.01 17.66 17.77 17.72L17.77 15.27L15.16 14.75L13.3 16.61Z" fill="#000000" fill-opacity="1.000000" fill-rule="nonzero"/>
</svg>
