<svg width="20.000000" height="20.000000" viewBox="0 0 20 20" fill="none" xmlns="http://www.w3.org/2000/svg" xmlns:xlink="http://www.w3.org/1999/xlink">
	<desc>
			Created with Pixso.
	</desc>
	<defs/>
	<path id="Vector" d="M13.3 14.7L14.7 13.3L11 9.6L11 5L9 5L9 10.39L13.3 14.7ZM10 20C8.61 20 7.31 19.73 6.1 19.21C4.88 18.68 3.82 17.97 2.92 17.07C2.02 16.17 1.31 15.11 0.78 13.89C0.26 12.68 0 11.38 0 10C0 8.61 0.26 7.31 0.78 6.1C1.31 4.88 2.02 3.82 2.92 2.92C3.82 2.02 4.88 1.31 6.1 0.78C7.31 0.26 8.61 0 10 0C11.38 0 12.68 0.26 13.9 0.78C15.11 1.31 16.17 2.02 17.07 2.92C17.97 3.82 18.68 4.88 19.21 6.1C19.73 7.31 20 8.61 20 10C20 11.38 19.73 12.68 19.21 13.89C18.68 15.11 17.97 16.17 17.07 17.07C16.17 17.97 15.11 18.68 13.9 19.21C12.68 19.73 11.38 20 10 20ZM10 18C12.21 18 14.1 17.22 15.66 15.66C17.22 14.1 18 12.21 18 10C18 7.78 17.22 5.89 15.66 4.33C14.1 2.77 12.21 2 10 2C7.78 2 5.89 2.77 4.33 4.33C2.77 5.89 2 7.78 2 10C2 12.21 2.77 14.1 4.33 15.66C5.89 17.22 7.78 18 10 18Z" fill="#000000" fill-opacity="1.000000" fill-rule="nonzero"/>
</svg>
