<svg width="28.000000" height="25.000000" viewBox="0 0 28 25" fill="none" xmlns="http://www.w3.org/2000/svg" xmlns:xlink="http://www.w3.org/1999/xlink">
	<desc>
			Created with Pixso.
	</desc>
	<defs/>
	<path id="Vector" d="M27.56 2.61C27.95 0.68 26.05 -0.93 24.21 -0.22L1.59 8.51C-0.47 9.31 -0.56 12.19 1.45 13.12L6.37 15.39L8.71 23.59C8.84 24.01 9.17 24.34 9.6 24.45C10.03 24.57 10.49 24.44 10.8 24.13L14.41 20.52L19.46 24.31C20.93 25.41 23.04 24.61 23.41 22.81L27.56 2.61ZM2.5 10.85L25.11 2.11L20.96 22.31L15.04 17.87C14.54 17.5 13.85 17.55 13.41 17.99L11.86 19.53L12.33 16.98L21.42 7.88C21.87 7.44 21.91 6.73 21.53 6.24C21.15 5.74 20.46 5.6 19.92 5.91L7.35 13.09L2.5 10.85ZM8.89 15.09L9.65 17.75L9.94 16.15C9.98 15.9 10.1 15.67 10.28 15.49L13.06 12.71L8.89 15.09Z" fill="#0F0F0F" fill-opacity="1.000000" fill-rule="evenodd"/>
</svg>
