<svg width="30.000000" height="30.000000" viewBox="0 0 30 30" fill="none" xmlns="http://www.w3.org/2000/svg" xmlns:xlink="http://www.w3.org/1999/xlink">
	<desc>
			Created with Pixso.
	</desc>
	<defs/>
	<path id="Vector" d="M21.84 17.93C21.47 17.73 19.66 16.76 19.32 16.62C18.98 16.48 18.73 16.41 18.47 16.78C18.2 17.14 17.45 17.95 17.22 18.19C16.99 18.43 16.77 18.46 16.4 18.26C16.04 18.06 14.84 17.62 13.45 16.29C12.37 15.26 11.66 14.01 11.46 13.63C11.25 13.25 11.46 13.06 11.65 12.88C11.83 12.72 12.04 12.46 12.24 12.24C12.43 12.03 12.5 11.88 12.64 11.64C12.77 11.39 12.72 11.17 12.63 10.98C12.54 10.79 11.86 8.93 11.58 8.17C11.29 7.41 10.97 7.52 10.76 7.52C10.54 7.51 10.29 7.47 10.04 7.46C9.78 7.45 9.37 7.53 9.02 7.89C8.66 8.25 7.65 9.11 7.58 10.95C7.51 12.79 8.79 14.61 8.97 14.86C9.15 15.12 11.42 19.1 15.18 20.74C18.95 22.37 18.97 21.87 19.66 21.84C20.35 21.8 21.91 21.02 22.26 20.16C22.61 19.3 22.64 18.55 22.55 18.39C22.46 18.23 22.21 18.13 21.84 17.93ZM14.94 26.77C12.45 26.77 10.13 26.03 8.19 24.76L3.48 26.26L5.01 21.74C3.55 19.74 2.68 17.27 2.68 14.61C2.68 7.9 8.18 2.44 14.94 2.44C21.7 2.44 27.2 7.9 27.2 14.61C27.2 21.32 21.7 26.77 14.94 26.77ZM14.94 0C6.8 0 0.21 6.54 0.21 14.61C0.21 17.37 0.98 19.95 2.32 22.15L-0.33 30L7.82 27.4C9.93 28.56 12.36 29.22 14.94 29.22C23.07 29.22 29.67 22.68 29.67 14.61C29.67 6.54 23.07 0 14.94 0Z" fill="#231F20" fill-opacity="1.000000" fill-rule="evenodd"/>
</svg>
