<svg width="140.000000" height="140.000000" viewBox="0 0 140 140" fill="none" xmlns="http://www.w3.org/2000/svg" xmlns:xlink="http://www.w3.org/1999/xlink">
	<desc>
			Created with Pixso.
	</desc>
	<defs>
		<clipPath id="clip338_178">
			<rect id="new_releases_FILL0_wght400_GRAD0_opsz24 1" width="140.000000" height="140.000000" fill="white" fill-opacity="0"/>
		</clipPath>
	</defs>
	<rect id="new_releases_FILL0_wght400_GRAD0_opsz24 1" width="140.000000" height="140.000000" fill="#FFFFFF" fill-opacity="0"/>
	<g clip-path="url(#clip338_178)">
		<path id="Vector" d="M50.16 130.5L39.08 111.83L18.08 107.16L20.12 85.58L5.83 69.25L20.12 52.91L18.08 31.33L39.08 26.66L50.16 8L70 16.45L89.83 8L100.91 26.66L121.91 31.33L119.87 52.91L134.16 69.25L119.87 85.58L121.91 107.16L100.91 111.83L89.83 130.5L70 122.04L50.16 130.5ZM55.12 115.62L70 109.2L85.16 115.62L93.33 101.62L109.37 97.83L107.91 81.5L118.7 69.25L107.91 56.7L109.37 40.37L93.33 36.87L84.87 22.87L70 29.29L54.83 22.87L46.66 36.87L30.62 40.37L32.08 56.7L21.29 69.25L32.08 81.5L30.62 98.12L46.66 101.62L55.12 115.62ZM63.87 89.95L96.83 57L88.66 48.54L63.87 73.33L51.33 61.08L43.16 69.25L63.87 89.95Z" fill="#FFFFFF" fill-opacity="1.000000" fill-rule="nonzero"/>
	</g>
</svg>
