<svg width="20.000000" height="20.000000" viewBox="0 0 20 20" fill="none" xmlns="http://www.w3.org/2000/svg" xmlns:xlink="http://www.w3.org/1999/xlink">
	<desc>
			Created with Pixso.
	</desc>
	<defs/>
	<path id="Ellipse 1" d="M16.49 16.93C18.18 15.41 19.36 13.31 19.71 10.89C20.02 8.64 19.58 6.27 18.28 4.2C17.08 2.27 15.22 0.74 12.9 -0.01C10.74 -0.72 8.33 -0.69 6.06 0.22C3.96 1.07 2.13 2.64 0.98 4.8C-0.09 6.8 -0.49 9.18 0.02 11.57C0.49 13.79 1.72 15.87 3.65 17.37C5.43 18.77 7.7 19.57 10.15 19.49C12.42 19.41 14.67 18.56 16.49 16.93ZM16.89 5.07C17.89 6.68 18.36 8.64 18.07 10.66C17.81 12.54 16.91 14.34 15.39 15.7C13.98 16.97 12.13 17.77 10.09 17.84C8.2 17.9 6.27 17.33 4.66 16.07C3.17 14.9 2.06 13.22 1.64 11.23C1.24 9.37 1.47 7.37 2.44 5.57C3.33 3.9 4.79 2.52 6.68 1.75C8.44 1.04 10.45 0.92 12.39 1.56C14.19 2.14 15.81 3.34 16.89 5.07Z" fill="#FFFFFF" fill-opacity="1.000000" fill-rule="evenodd"/>
	<path id="Vector" d="M9.8 2.83C6.12 2.83 3.14 5.81 3.14 9.49C3.14 13.18 6.12 16.16 9.8 16.16C13.49 16.16 16.47 13.18 16.47 9.49C16.47 5.81 13.49 2.83 9.8 2.83ZM9.8 4.49C10.26 4.49 10.64 4.87 10.64 5.33L10.64 9.15L12.89 11.41C13.22 11.73 13.22 12.26 12.89 12.58C12.73 12.75 12.52 12.83 12.3 12.83C12.09 12.83 11.88 12.75 11.71 12.58L8.97 9.84L8.97 5.33C8.97 4.87 9.34 4.49 9.8 4.49Z" fill="#FFFFFF" fill-opacity="1.000000" fill-rule="nonzero"/>
</svg>
